<?xml version="1.0" encoding="UTF-8" standalone="no"?>
<!-- Created with Inkscape (http://www.inkscape.org/) -->

<svg
   version="1.1"
   id="svg1"
   width="797.45538"
   height="346.5325"
   viewBox="0 0 797.45538 346.5325"
   sodipodi:docname="under-construction.svg"
   xml:space="preserve"
   inkscape:version="1.3 (0e150ed6c4, 2023-07-21)"
   xmlns:inkscape="http://www.inkscape.org/namespaces/inkscape"
   xmlns:sodipodi="http://sodipodi.sourceforge.net/DTD/sodipodi-0.dtd"
   xmlns="http://www.w3.org/2000/svg"
   xmlns:svg="http://www.w3.org/2000/svg"><defs
     id="defs1" /><sodipodi:namedview
     id="namedview1"
     pagecolor="#505050"
     bordercolor="#eeeeee"
     borderopacity="1"
     inkscape:showpageshadow="0"
     inkscape:pageopacity="0"
     inkscape:pagecheckerboard="0"
     inkscape:deskcolor="#d1d1d1"
     inkscape:zoom="1.0332889"
     inkscape:cx="363.8866"
     inkscape:cy="375.5"
     inkscape:window-width="1920"
     inkscape:window-height="1001"
     inkscape:window-x="-9"
     inkscape:window-y="-9"
     inkscape:window-maximized="1"
     inkscape:current-layer="g1" /><g
     inkscape:groupmode="layer"
     inkscape:label="Image"
     id="g1"
     transform="translate(86.221298,-408.56277)"><path
       style="fill:#dadada;fill-opacity:1"
       d="m -73.767737,753.9275 c -5.186277,-1.39924 -8.559083,-4.55569 -11.151564,-10.43622 -2.590092,-5.87512 -1.349652,-12.38621 4.025109,-21.12788 1.183574,-1.925 3.511338,-5.975 5.172809,-9 3.039794,-5.53448 5.473301,-9.82813 9.493373,-16.75 1.197856,-2.0625 3.560356,-6.14976 5.25,-9.0828 1.689645,-2.93304 3.537625,-6.08304 4.106622,-7 0.568998,-0.91696 2.143998,-3.64072 3.5,-6.0528 1.356003,-2.41208 2.915459,-5.11208 3.465459,-6 0.55,-0.88792 5.237714,-9.0394 10.417141,-18.1144 5.179428,-9.075 10.179791,-17.625 11.111919,-19 0.932128,-1.375 3.275066,-5.425 5.20653,-9 3.179219,-5.8845 8.668692,-15.53868 11.277149,-19.8328 4.3627212,-7.18203 43.848411,-75.64197 45.367061,-78.657 0.828268,-1.64439 2.589193,-4.56939 3.913168,-6.5 1.323975,-1.93061 2.817782,-4.4102 3.319572,-5.5102 0.501789,-1.1 1.747187,-3.35 2.76755,-5 1.456999,-2.35607 23.125083,-40.02151 30.202073,-52.5 0.77981,-1.375 1.92922,-3.175 2.55425,-4 0.62502,-0.825 2.45191,-3.975 4.05974,-7 1.60784,-3.025 4.06161,-7.3 5.45283,-9.5 1.39122,-2.2 3.16433,-5.17855 3.94025,-6.619 4.78305,-8.87945 6.16212,-10.87536 9.76048,-14.12626 5.589096,-5.04942 11.464146,-5.89262 17.917546,-2.57159 4.45626,2.29327 5.37082,3.56904 17.46901,24.36841 7.02161,12.07164 13.94128,24.19844 15.37704,26.94844 1.43577,2.75 3.23513,5.71043 3.99858,6.57874 0.76346,0.86831 1.38811,1.88317 1.38811,2.25525 0,0.37208 6.29245,11.47471 13.98323,24.67251 7.69078,13.19781 15.63849,27.03295 17.66157,30.74476 2.02308,3.71181 4.50563,7.82193 5.51676,9.1336 1.01114,1.31167 1.83844,2.80559 1.83844,3.31982 0,0.51423 1.2375,2.82347 2.75,5.13164 4.51994,6.89771 5.20778,8.05414 6.2871,10.5701 0.56779,1.32353 2.36671,4.38359 3.99762,6.80013 1.6309,2.41654 2.96528,4.59989 2.96528,4.85189 0,0.52824 21.84805,38.43517 23.02073,39.94156 0.42816,0.55 2.19535,3.7 3.92708,7 1.73174,3.3 3.95523,7.35 4.9411,9 0.98586,1.65 5.17611,8.85 9.31165,16 4.13554,7.15 9.99792,17.275 13.0275,22.5 3.02959,5.225 7.82125,13.55 10.64815,18.5 2.8269,4.95 5.5827,9.675 6.12401,10.5 0.54131,0.825 2.34121,3.975 3.99978,7 1.65856,3.025 3.43178,6.175 3.94049,7 4.54252,7.36691 11.4975,19.90073 14.5739,26.26414 3.27578,6.77583 3.67208,8.35871 3.11336,12.43504 -0.74011,5.39968 -2.55172,8.54963 -6.34757,11.03689 -2.5445,1.6673 -12.74647,1.77422 -186.23607,1.95183 -148.762121,0.1523 -184.465432,-0.0607 -188.405917,-1.1238 z m 368.096397,-5.15997 c 2.80114,-0.34533 4.74758,-1.25444 5.75,-2.6856 1.86105,-2.65702 1.95341,-8.36131 0.18974,-11.71853 -3.13338,-5.96453 -21.38372,-37.81685 -66.17773,-115.5 -11.41717,-19.8 -21.53051,-37.35 -22.4741,-39 -0.94358,-1.65 -4.32346,-7.5 -7.51084,-13 -3.18738,-5.5 -6.93336,-12.025 -8.32439,-14.5 -1.39104,-2.475 -4.75159,-8.325 -7.46789,-13 -7.33752,-12.62851 -6.31751,-10.86272 -36.39192,-63 -15.38698,-26.675 -29.28645,-50.84879 -30.88771,-53.71953 -3.50471,-6.28322 -7.59414,-8.84929 -12.60469,-7.90931 -5.13304,0.96297 -7.78705,4.35405 -18.744026,23.94967 -2.24138,4.00851 -9.48284,16.54615 -27.82723,48.17917 -15.132077,26.09372 -36.608373,63.25947 -39.004998,67.5 -1.087954,1.925 -5.110308,8.9 -8.938564,15.5 -17.2645148,29.76442 -26.232228,45.27669 -28.144881,48.68479 -1.137365,2.02663 -3.217106,5.50519 -4.621648,7.73012 -1.404542,2.22494 -2.553712,4.22099 -2.553712,4.43567 0,0.21467 -2.987724,5.51111 -6.639387,11.76987 -11.244105,19.27179 -17.292628,29.72894 -27.11562,46.87955 -5.197695,9.075 -9.805323,16.95 -10.239174,17.5 -0.726757,0.92132 -4.99511,8.75653 -12.257234,22.5 -3.694582,6.99195 -3.33879,11.87126 1.196346,16.40662 l 3.093231,3.09338 169.730921,0.5 c 167.637076,0.49383 189.664386,0.42753 197.965506,-0.59587 z M 5.5940712,747.02943 c 0,-0.18368 -6.75,-20.26844 -15,-44.63281 -8.2500002,-24.36437 -15.0000002,-44.91408 -15.0000002,-45.66603 0,-1.98878 6.551322,-1.74235 10.17723,0.38281 7.1933762,4.21607 17.1828622,22.52069 23.2769712,42.65245 5.4095338,17.87027 12.5465888,45.78725 11.9517138,46.74978 -0.480734,0.77785 -15.4059148,1.27562 -15.4059148,0.5138 z M 32.259858,741.6134 c -6.451336,-23.21693 -9.93735,-45.99269 -10.063571,-65.75 -0.106702,-16.70215 0.943983,-22.8237 5.401394,-31.4699 4.520651,-8.76887 15.697721,-15.81319 23.189593,-14.6152 8.43667,1.34908 16.67119,8.07948 22.86916,18.69188 3.90274,6.68242 4.01635,6.77452 15.68443,12.71473 10.34644,5.26736 20.200366,8.88329 46.524206,17.07215 3.72405,1.15849 8.89905,2.10802 11.5,2.11008 5.46091,0.004 10.69403,2.72803 12.38906,6.44823 0.96638,2.12096 1.88572,2.49696 6.72961,2.75229 5.29201,0.27896 5.62828,0.45177 5.92675,3.04574 0.30554,2.65547 0.52038,2.75 6.25,2.75 4.54428,0 5.93358,-0.34297 5.93358,-1.46482 0,-2.15657 3.26607,-3.53518 8.37524,-3.53518 2.4787,0 4.83166,-0.52576 5.2288,-1.16835 1.62778,-2.6338 0.65212,-18.57558 -1.55496,-25.40725 -2.26785,-7.01976 -4.51987,-11.18533 -5.26993,-9.74784 -0.23632,0.45289 -1.95209,6.56094 -3.81284,13.57344 -2.75399,10.37883 -3.71909,12.75 -5.18944,12.75 -2.67657,0 -5.76879,-5.79709 -5.77314,-10.8231 -0.005,-5.23422 20.10387,-78.88529 22.56152,-82.63614 2.80221,-4.27672 11.43475,-7.59387 11.43475,-4.39393 0,0.63075 -3.63302,14.38248 -8.07338,30.5594 l -8.07338,29.41258 2.7177,3.56309 c 7.287,9.55375 9.55761,16.64471 10.34865,32.3181 l 0.58041,11.5 5,0.51781 c 5.65509,0.58566 7.5,1.45676 7.5,3.54121 0,0.98017 1.11926,1.44098 3.5,1.44098 h 3.5 v 26 26 h -5.5 c -3.71522,0 -5.51103,-0.40563 -5.53398,-1.25 -0.0187,-0.6875 -0.13119,-8.675 -0.25,-17.75 l -0.21602,-16.5 -42.25,-0.26085 -42.25,-0.26086 v 18.06076 18.06076 l -5.57259,-0.29991 -5.5726,-0.2999 0.0606,-25 c 0.0333,-13.75 0.066,-25.3375 0.0726,-25.75 0.007,-0.4125 3.19233,-0.75 7.07939,-0.75 6.27163,0 7.00608,-0.19704 6.52283,-1.75 -0.69724,-2.24065 0.37605,-3.89451 2.90979,-4.48377 1.65056,-0.38386 1.35041,-0.75351 -1.71788,-2.11568 -2.82929,-1.25605 -6.79473,-1.65055 -16.59102,-1.65055 -7.08021,0 -16.57189,-0.49778 -21.092606,-1.10617 -4.52073,-0.6084 -8.4139,-0.91178 -8.65149,-0.67419 -0.23759,0.23759 1.30704,4.89787 3.43253,10.35617 7.880756,20.23806 14.101426,43.00792 14.117246,51.67419 0.003,1.63465 -2.39407,1.75 -36.365026,1.75 H 33.857622 Z M 59.594074,628.93243 c -7.2307,-2.01197 -12.982573,-5.42117 -18.565221,-11.00381 -13.316922,-13.31692 -16.128814,-32.48941 -7.305622,-49.81233 2.808924,-5.51487 11.657967,-13.87162 17.908913,-16.9126 8.34827,-4.06128 16.65467,-5.47044 24.41271,-4.14154 28.085366,4.81082 43.670836,33.55278 32.037756,59.08247 -4.85057,10.64497 -17.003436,20.48467 -28.603196,23.15889 -5.80022,1.33719 -14.31727,1.17825 -19.88534,-0.37108 z m 566.249996,82.76869 c -2.19205,-0.88451 -1.48881,-3.54829 0.74922,-2.83797 2.16245,0.68634 3.46146,-1.54406 4.54349,-7.80116 0.87631,-5.06743 3.31741,-6.76819 10.55348,-7.35274 3.52209,-0.28453 7.30381,-0.5033 8.40381,-0.48616 2.45144,0.0382 7.49433,5.81063 7.51531,8.60254 0.0239,3.17598 1.49214,4.74368 4.09778,4.37526 2.63065,-0.37195 3.87357,-4.25083 1.97157,-6.15283 -0.59656,-0.59656 -1.08466,-3.21043 -1.08466,-5.8086 0,-3.97044 0.43864,-5.06364 2.75,-6.85363 7.78962,-6.03251 10.59807,-8.02243 11.3224,-8.02243 1.99205,0 5.71933,2.03409 8.9276,4.87204 4.21605,3.72942 5.30097,3.84375 7.31441,0.77085 1.48851,-2.27174 1.36593,-2.53292 -3.38499,-7.2124 -2.71118,-2.67042 -4.92942,-5.64985 -4.92942,-6.62096 0,-0.97112 1.6136,-5.21219 3.58579,-9.42461 l 3.5858,-7.65894 7.97974,0.54694 c 7.50523,0.51442 8.02911,0.4185 8.80973,-1.61299 1.13689,-2.95865 0.31724,-3.55809 -7.59098,-5.55148 l -6.87008,-1.73172 -0.78232,-8.43837 c -1.16074,-12.52007 -1.37657,-12.12856 9.09546,-16.49899 3.85762,-1.60996 4.24529,-2.0704 3.67072,-4.3597 -0.89778,-3.57704 -2.22086,-4.0875 -6.2409,-2.40783 -4.78992,2.00136 -11.28932,1.99671 -12.41171,-0.009 -0.48532,-0.86722 -2.44589,-3.62505 -4.35683,-6.12851 -4.50979,-5.90815 -4.41211,-8.57044 0.54279,-14.79352 3.79628,-4.76793 3.92524,-5.14702 2.34501,-6.89316 -2.4245,-2.67904 -3.44882,-2.35416 -8.36222,2.65224 -5.33309,5.43402 -7.10896,5.55989 -16,1.13405 l -6.5,-3.23561 0.16078,-8.09207 0.16078,-8.09206 -3.0945,-0.6189 c -3.66116,-0.73223 -4.40334,0.14925 -5.33948,6.34164 -0.39469,2.61082 -1.62275,5.38902 -2.98372,6.75 -2.03003,2.03003 -3.2871,2.31295 -10.27685,2.31295 -7.91464,0 -7.97606,-0.0201 -9.93143,-3.25 -1.08215,-1.7875 -2.29893,-4.375 -2.70395,-5.75 -1.11201,-3.77509 -2.26082,-4.76678 -4.9308,-4.25638 -3.15658,0.60342 -3.84617,2.60988 -2.25536,6.56228 0.70709,1.75675 1.40964,4.85314 1.56124,6.88085 0.26012,3.4794 -0.0771,3.94337 -5.99563,8.25 -3.44919,2.50979 -6.74371,4.61507 -7.32117,4.6784 -2.69855,0.29598 -5.21989,-0.44514 -7.04991,-2.07223 -1.1,-0.97803 -3.24903,-2.57209 -4.77563,-3.54237 -2.65477,-1.68734 -2.86158,-1.68635 -4.75,0.0226 -2.86349,2.59143 -2.48758,3.81535 2.40257,7.82246 5.95126,4.87661 6.20992,7.23706 1.75409,16.00742 l -3.63103,7.14693 -7.33271,-0.3038 c -7.72842,-0.3202 -10.16729,0.61316 -10.16729,3.89106 0,1.77838 3.65868,4.58739 4.66468,3.58139 0.72195,-0.72195 9.0493,2.27478 10.15446,3.65424 0.51867,0.64741 1.26195,5.11461 1.65172,9.92711 l 0.70867,8.75 h -2.71221 c -2.22879,0 -2.50229,-0.25295 -1.53443,-1.41914 0.68913,-0.83035 1.08419,-4.01268 0.9522,-7.67024 -0.26864,-7.44423 -1.76188,-9.38226 -8.02933,-10.42098 -6.71379,-1.1127 -7.85576,-2.03867 -7.85576,-6.36984 0,-5.97525 2.19559,-7.30147 10.76869,-6.50468 l 7.06533,0.65665 3.08299,-6.10737 c 1.69564,-3.35905 3.08299,-6.72817 3.08299,-7.48693 0,-0.75876 -2.25,-3.45217 -5,-5.98535 -2.75,-2.53319 -5,-5.23953 -5,-6.0141 0,-2.04509 3.71971,-6.45428 6.07588,-7.2021 1.45388,-0.46145 3.51397,0.50742 7.31628,3.44089 2.91092,2.24575 5.76829,4.08319 6.34972,4.08319 1.42241,0 11.57529,-6.86499 12.46607,-8.42908 0.38938,-0.6837 -0.0819,-3.90435 -1.04728,-7.157 -0.96538,-3.25266 -1.59703,-6.65695 -1.40366,-7.56509 0.43069,-2.02277 5.22373,-4.13193 8.36462,-3.68082 2.27177,0.32628 2.98339,1.3356 6.5795,9.33199 l 1.79887,4 7,-0.34984 c 3.85,-0.19241 7.53801,-0.78968 8.19557,-1.32727 0.65757,-0.5376 1.75306,-3.46852 2.43442,-6.51315 1.55829,-6.96316 3.11538,-8.62834 7.24372,-7.74655 5.32222,1.13679 5.81468,2.07116 5.45437,10.34885 l -0.32808,7.53754 5.44643,2.77017 c 8.5316,4.33934 8.36116,4.35402 13.70067,-1.17962 5.38767,-5.58356 6.87042,-5.99409 10.71804,-2.96755 3.43353,2.70081 3.36201,6.02072 -0.21849,10.14262 -5.37543,6.18823 -5.62001,7.39449 -2.34623,11.5716 1.6006,2.04226 3.465,4.7703 4.14311,6.06231 1.34839,2.56912 3.22109,2.58253 11.96598,0.0857 4.16889,-1.19032 4.51269,-1.13159 6.30045,1.07619 1.16728,1.44154 1.77595,3.51273 1.59049,5.41213 -0.26425,2.70619 -1.0836,3.45072 -6.80045,6.17948 -3.575,1.70642 -6.455,3.61892 -6.4,4.25 0.055,0.63109 0.1675,3.81529 0.25,7.076 0.18218,7.20041 1.33538,8.55292 8.57382,10.05562 2.98237,0.61913 5.93386,1.74186 6.55887,2.49495 1.4666,1.76715 0.29332,8.26701 -1.69291,9.37856 -0.81529,0.45626 -4.70152,0.62623 -8.63607,0.3777 l -7.15371,-0.45186 -2.75013,6.35823 c -1.51257,3.49703 -2.75007,6.88017 -2.75,7.51809 7e-5,0.63793 2.02513,3.08982 4.50013,5.44864 2.54136,2.42208 4.48552,5.18164 4.46673,6.34014 -0.0389,2.39915 -3.04004,6.30589 -5.06293,6.59069 -2.66686,0.37546 -3.63951,-0.053 -8.01307,-3.52962 -2.4149,-1.91967 -4.90195,-3.49467 -5.52678,-3.5 -2.14352,-0.0183 -13.36395,8.15535 -13.36395,9.73514 0,0.86865 0.74183,3.93272 1.64851,6.80905 1.92086,6.09368 1.43262,8.08456 -2.33385,9.51657 -4.85587,1.84619 -6.8407,0.51523 -9.87362,-6.62095 l -2.79273,-6.57105 -6.57416,0.64116 c -3.61578,0.35263 -7.29298,0.8385 -8.17154,1.07971 -1.62047,0.4449 -3.90261,6.41543 -3.90261,10.20998 0,1.1425 -1.00013,2.77779 -2.22251,3.63398 -2.35223,1.64756 -2.55952,1.68851 -4.52749,0.89442 z M 291.49195,698.10533 c -5.34833,-3.55425 -7.89788,-9.68318 -7.89788,-18.98594 0,-9.21986 1.4182,-13.15997 6.27016,-17.42005 6.65793,-5.84574 17.9937,-5.21625 23.73066,1.31778 1.64955,1.87873 2.99918,4.03841 2.99918,4.79929 0,0.76088 0.27314,2.09522 0.60699,2.9652 0.49693,1.29499 -0.183,1.57787 -3.75,1.56015 -3.90782,-0.0194 -4.51163,-0.35002 -5.85699,-3.20688 -2.63576,-5.597 -10.02775,-5.71115 -13.63192,-0.2105 -2.63731,4.02505 -2.44838,17.51109 0.29705,21.20381 3.61641,4.86422 12.5952,4.03047 13.93147,-1.29365 0.54363,-2.16599 1.17083,-2.47114 5.07919,-2.47114 4.15666,0 4.4134,0.15255 3.78668,2.25 -2.3699,7.93142 -7.74809,11.75 -16.54899,11.75 -4.16188,0 -6.49828,-0.58518 -9.0156,-2.25807 z m 36.40067,0.29855 c -4.39552,-2.6801 -6.29855,-6.83644 -6.29855,-13.75642 0,-10.75642 5.8103,-16.81724 15.32449,-15.98523 5.6506,0.49414 9.48829,2.99562 11.92395,7.77225 3.63685,7.1323 0.98969,18.58489 -5.13149,22.20076 -3.99411,2.35938 -11.75564,2.24586 -15.8184,-0.23136 z m 13.39441,-8.84805 c 3.60115,-8.61879 -2.73358,-17.53931 -9.1325,-12.8603 -2.27144,1.66092 -3.30706,10.40432 -1.60831,13.57847 2.6598,4.96988 8.52813,4.5775 10.74081,-0.71817 z m 14.30704,-4.69243 v -15.5 h 3.91666 c 2.15417,0 4.09486,0.53457 4.31265,1.18793 0.28083,0.84249 1.09676,0.69709 2.80584,-0.5 2.72072,-1.90567 6.58633,-2.16254 10.44812,-0.69429 4.16806,1.58469 5.51673,6.35958 5.51673,19.53174 v 11.58962 l -4.25,-0.3075 -4.25,-0.3075 -0.5,-12 -0.5,-12 -3.12457,-0.304 c -5.45431,-0.53068 -6.37543,1.47406 -6.37543,13.87543 v 10.92857 h -4 -4 z m 36.77514,13.9412 c -2.8866,-1.5665 -4.77514,-4.28571 -4.77514,-6.87546 0,-2.37849 6.13554,-2.05623 8.26797,0.43426 2.04766,2.3915 6.95348,2.64301 8.77368,0.44981 1.82677,-2.20112 -0.19708,-3.8567 -7.11564,-5.82089 -6.74713,-1.91551 -9.32601,-4.48948 -9.32601,-9.30825 0,-9.04012 15.23701,-12.6375 22.55046,-5.32405 4.26674,4.26673 3.78929,6.00338 -1.65046,6.00338 -3.30761,0 -4.5,-0.39242 -4.5,-1.48095 0,-1.65657 -4.18378,-3.04624 -6.49777,-2.15828 -0.82623,0.31705 -1.50223,1.50023 -1.50223,2.62928 0,2.1519 1.50738,3.00706 8.69635,4.93355 9.30148,2.4926 11.29774,12.44249 3.32366,16.56605 -3.69826,1.91245 -12.68088,1.88566 -16.24487,-0.0485 z m 30.29744,-1.07606 c -1.77866,-2.26119 -2.07258,-4.0339 -2.07258,-12.5 0,-9.85615 -0.002,-9.86514 -2.5,-9.86514 -2.09793,0 -2.5,-0.4713 -2.5,-2.93045 0,-2.27763 0.50123,-3.00163 2.25,-3.25 1.80733,-0.25668 2.31106,-1.05733 2.56036,-4.06955 0.30089,-3.63554 0.42877,-3.75 4.18964,-3.75 3.76087,0 3.88874,0.11446 4.18963,3.75 0.2493,3.01222 0.75304,3.81287 2.56037,4.06955 1.74877,0.24837 2.25,0.97237 2.25,3.25 0,2.47113 -0.39796,2.93045 -2.53894,2.93045 h -2.53893 l 0.28893,8.75 c 0.28797,8.72084 0.2981,8.75105 3.03894,9.06642 2.40462,0.27668 2.75,0.74766 2.75,3.75 v 3.43358 h -4.92742 c -4.1321,0 -5.26195,-0.42528 -7,-2.63486 z m 15.92742,-12.80764 v -15.5575 h 4 c 2.27506,0 4,0.48083 4,1.11501 0,0.67366 1.01297,0.45129 2.55913,-0.5618 1.40753,-0.92225 3.54503,-1.5365 4.75,-1.36501 1.74049,0.2477 2.25467,1.0827 2.50123,4.0618 0.2925,3.53413 0.1452,3.75 -2.55887,3.75 -5.44797,0 -6.17806,1.46509 -6.47824,13 l -0.27325,10.5 -4.25,0.3075 -4.25,0.3075 z m 25.26137,13.91302 c -3.08734,-2.16246 -4.24937,-7.41056 -4.2558,-19.22052 l -0.006,-10.25 h 4.46826 4.46827 l 0.28173,11.63723 c 0.26116,10.78727 0.43551,11.69398 2.38716,12.41429 1.22862,0.45346 3.10264,0.28076 4.5,-0.41468 2.28488,-1.13716 2.40753,-1.70587 2.67733,-12.4143 l 0.28275,-11.22254 h 3.96725 3.96725 v 15.5 15.5 h -4 c -2.95365,0 -4,-0.40722 -4,-1.5567 0,-1.40894 -0.21097,-1.40894 -2.22251,0 -2.84266,1.99107 -9.69106,2.00597 -12.51612,0.0272 z m 34.45719,-0.24713 c -6.00793,-3.72254 -8.54782,-15.0763 -4.96701,-22.20346 2.34485,-4.66712 7.54801,-8.01993 12.44599,-8.01993 6.80237,0 12.80246,4.55662 12.80246,9.72251 0,1.96649 -0.51385,2.27749 -3.76287,2.27749 -2.94309,0 -3.97793,-0.49019 -4.75,-2.25 -1.23452,-2.81387 -5.62026,-3.47401 -7.90449,-1.18978 -1.29268,1.29268 -1.60275,3.15859 -1.37572,8.27881 0.25615,5.77719 0.5872,6.75613 2.6275,7.76979 2.96836,1.47474 6.29061,0.62907 6.91544,-1.76029 0.36551,-1.39771 1.43047,-1.84853 4.36677,-1.84853 3.27834,0 3.88337,0.32718 3.88337,2.1 0,1.155 -1.53,3.63 -3.4,5.5 -3.03011,3.03011 -3.98204,3.39711 -8.75,3.37339 -3.27993,-0.0163 -6.42623,-0.69344 -8.13144,-1.75 z m 29.36814,-0.3607 c -1.83588,-1.97059 -2.0867,-3.47925 -2.0867,-12.55125 V 675.3634 h -2.5 c -2.09793,0 -2.5,-0.4713 -2.5,-2.93045 0,-2.27763 0.50123,-3.00163 2.25,-3.25 1.80733,-0.25668 2.31106,-1.05733 2.56036,-4.06955 0.30178,-3.64624 0.41938,-3.75 4.25,-3.75 3.92958,0 3.93964,0.0102 3.93964,4 0,3.6 0.25,4 2.5,4 2.11111,0 2.5,0.46667 2.5,3 0,2.5456 -0.38457,3 -2.53894,3 h -2.53893 l 0.28893,8.75 0.28894,8.75 2.80798,0.32202 c 2.49916,0.2866 2.77412,0.67154 2.5,3.5 -0.29283,3.02161 -0.53744,3.1928 -4.97128,3.47923 -3.77844,0.24409 -5.05925,-0.12375 -6.75,-1.93856 z m 16.57996,1.47064 c -0.36666,-0.36666 -0.66666,-7.34166 -0.66666,-15.5 V 669.3634 h 4.5 4.5 v 15.5 15.5 h -3.83334 c -2.10833,0 -4.13333,-0.3 -4.5,-0.66667 z m 21.75178,-0.24817 c -3.64939,-1.57103 -7.26193,-6.85862 -7.98635,-11.68944 -1.85041,-12.33943 6.59311,-21.11438 18.21837,-18.93347 10.86119,2.03757 15.02324,18.46723 6.91857,27.31096 -2.94823,3.21707 -3.87414,3.60999 -9.17411,3.89313 -3.24221,0.1732 -6.83163,-0.0883 -7.97648,-0.58118 z m 9.9467,-7.15774 c 2.24353,-1.76476 2.63486,-2.84561 2.63486,-7.27749 0,-6.43404 -1.99954,-9.64993 -6,-9.64993 -4.00047,0 -6,3.21589 -6,9.64993 0,4.43188 0.39133,5.51273 2.63486,7.27749 1.44917,1.13992 2.96348,2.07258 3.36514,2.07258 0.40165,0 1.91597,-0.93266 3.36514,-2.07258 z m 16.63486,-7.42742 v -15.5 h 4 c 2.2,0 4,0.46156 4,1.02568 0,0.57236 1.39784,0.30283 3.16274,-0.60984 4.27354,-2.20993 10.62624,-1.34587 12.97625,1.76496 2.04294,2.70434 3.13584,11.39359 2.68146,21.3192 l -0.32045,7 -4.25,0.3075 -4.25,0.3075 v -11.3575 c 0,-12.23 -0.55515,-13.7575 -5,-13.7575 -4.44134,0 -5,1.53075 -5,13.7 v 11.3 h -4 -4 z m 36.5,-13.02884 c -2.2,-0.79257 -4.1125,-1.44782 -4.25,-1.4561 -0.1375,-0.008 -0.25,-0.6671 -0.25,-1.46403 0,-1.25175 0.49616,-1.24167 3.64519,0.0741 5.30833,2.21797 16.88481,1.93393 22.69555,-0.55684 6.47328,-2.77478 13.97152,-10.08431 16.7767,-16.35451 3.1209,-6.9759 3.20607,-18.13757 0.1895,-24.83616 -9.20521,-20.4411 -35.26512,-25.71942 -50.71287,-10.27168 -9.1882,9.1882 -11.96325,22.73743 -7.09554,34.64408 0.49702,1.21571 0.2485,1.75 -0.81399,1.75 -3.44871,0 -5.21734,-16.75134 -2.6156,-24.77329 3.18794,-9.82943 12.40413,-18.64442 22.78788,-21.79587 15.83744,-4.80663 33.46307,3.20188 40.48154,18.39349 1.73357,3.75234 2.16029,6.55168 2.16089,14.17567 8.4e-4,10.68045 -1.09371,14.32553 -6.22947,20.74547 -8.75557,10.94486 -24.76557,16.05036 -36.76978,11.72569 z m -84.3,-7.67116 c -3.57432,-3.57431 0.72854,-9.06485 5.42649,-6.92432 4.21234,1.91927 2.58821,8.12432 -2.12649,8.12432 -1.155,0 -2.64,-0.54 -3.3,-1.2 z M 372.15189,646.93483 c -5.31315,-1.97837 -8.65915,-4.60364 -11.05782,-8.67596 -1.80326,-3.06145 -2.03147,-5.53508 -2.31992,-25.14547 l -0.31992,-21.75 h 6.06992 6.06992 v 20.04966 c 0,25.43231 0.58622,26.95034 10.40747,26.95034 3.26774,0 4.80152,-0.59307 6.66821,-2.5784 2.38213,-2.53354 2.42993,-2.94244 2.74672,-23.5 l 0.3224,-20.9216 h 5.4276 5.4276 v 21.61385 c 0,20.53078 -0.11221,21.81349 -2.23926,25.59805 -1.2605,2.24277 -4.05064,5.04576 -6.38349,6.4129 -5.31701,3.11598 -15.19786,4.03984 -20.81943,1.94663 z m 91.94218,0.0692 c -7.03631,-3.24984 -10.51029,-10.16544 -10.47804,-20.85848 0.0324,-10.75955 3.94146,-17.93003 11.29314,-20.71551 4.03215,-1.52774 6.75174,-1.32676 10.93985,0.80846 l 3.67784,1.87507 0.2836,-10.12507 0.28361,-10.12507 5.25,-0.30226 5.25,-0.30226 v 30.05223 30.05226 h -5 c -4.35792,0 -5,-0.26068 -5,-2.02994 0,-2.02245 -0.0105,-2.02217 -2.8465,0.0746 -3.61089,2.66965 -9.77007,3.3896 -13.6535,1.59597 z m 11.81574,-8.7903 c 3.35811,-1.76758 3.65363,-2.72607 3.65363,-11.8503 0,-9.47849 -0.33844,-10.42942 -4.23973,-11.91269 -6.11017,-2.32308 -10.72964,3.02855 -10.72964,12.43023 0,9.19962 5.2945,14.50209 11.31574,11.33276 z m 35.32152,8.74457 c -4.76593,-1.77264 -9.43663,-6.05026 -11.26042,-10.31275 -1.99738,-4.66817 -1.72575,-15.91731 0.50282,-20.82349 3.81208,-8.39227 12.45171,-12.59789 21.65079,-10.53923 8.7139,1.95009 12.93254,7.64941 14.12797,19.0867 l 0.62649,5.99387 h -13.64246 c -8.28251,0 -13.64245,0.38669 -13.64245,0.98422 0,0.54133 1.31332,2.45383 2.9185,4.25 2.50704,2.80535 3.54681,3.25268 7.37505,3.17285 2.81276,-0.0587 5.55157,-0.87266 7.42532,-2.20689 l 2.96876,-2.11395 2.23685,3.02549 c 2.80269,3.79085 2.25068,5.24811 -3.00337,7.92852 -5.37764,2.74347 -13.28084,3.41546 -18.28385,1.55463 z m 13.61442,-25.17988 c 1.39723,-1.39724 -1.54322,-6.32097 -4.36164,-7.30348 -4.71857,-1.6449 -8.78178,0.57186 -10.33504,5.63849 -0.67224,2.19279 -0.50159,2.25 6.71094,2.25 4.0704,0 7.66398,-0.26326 7.98574,-0.58501 z m -114.25168,4.58498 v -21 h 5.09362 c 4.24184,0 5.18052,0.33234 5.61333,1.98739 0.51833,1.98209 0.5272,1.98207 3.32123,-0.007 4.11011,-2.92665 10.69079,-3.49111 14.97182,-1.28421 6.04899,3.11831 6.99667,6.51097 6.99844,25.05428 l 0.002,16.25 h -5.5 -5.5 v -14.80887 c 0,-11.02736 -0.35311,-15.29178 -1.38283,-16.7 -1.82744,-2.49918 -7.82315,-2.51968 -10.56744,-0.0361 -1.89096,1.71129 -2.04973,3.0049 -2.04973,16.7 v 14.84451 h -5.5 -5.5 z m 132,0 v -21 h 5.09362 c 4.29562,0 5.17768,0.32148 5.63022,2.05198 0.53151,2.03249 0.55673,2.03358 2.65638,0.11493 2.69067,-2.45872 6.04429,-3.48434 8.66916,-2.65124 1.76598,0.5605 2.00798,1.3461 1.75,5.68105 l -0.29938,5.03059 -4.21546,0.2001 c -7.62446,0.36192 -8.28454,1.77439 -8.28454,17.72758 v 13.84501 h -5.5 -5.5 z m -118.75,-45.73886 c -2.26541,-0.77533 -1.32792,-2.70692 3.28148,-6.76114 l 4.54776,-4 -1.72258,-4.5 c -2.49599,-6.52041 -2.94841,-6.875 -9.18975,-7.20258 -5.63848,-0.29593 -5.66853,-0.31437 -5.98976,-3.67458 -0.41846,-4.37744 0.5138,-5.18056 6.92932,-5.96948 l 5.31319,-0.65336 1.14613,-5.72536 c 1.27762,-6.38219 0.95267,-7.00448 -5.31579,-10.17973 -3.63965,-1.84364 -4.36955,-5.33251 -1.67857,-8.02348 1.92646,-1.92647 4.14619,-1.94781 7.42857,-0.0714 4.02303,2.29977 6.27631,1.73339 9.75,-2.45077 3.79936,-4.57645 3.91063,-5.45344 1.24626,-9.8234 -2.51765,-4.12931 -2.53836,-6.86534 -0.062,-8.19065 3.53514,-1.89195 5.72534,-1.13387 8.56574,2.96482 1.5246,2.2 3.2733,3.99818 3.886,3.99597 0.6127,-0.002 3.364,-0.80893 6.114,-1.7927 l 5,-1.78866 0.30988,-5.42699 c 0.35049,-6.13829 1.43638,-7.98765 4.69012,-7.98765 3.06146,0 4.18382,1.63354 5.03076,7.32203 0.78224,5.25397 1.85246,6.07599 9.50336,7.29942 3.64934,0.58355 4.03784,0.40559 5.69129,-2.60709 3.6649,-6.67763 4.76273,-7.56861 7.68518,-6.23705 3.74933,1.70831 4.1162,3.59672 1.78738,9.20049 l -2.0413,4.9119 4.39932,4.05515 c 2.41963,2.23033 4.68055,4.05515 5.02428,4.05515 0.34373,0 2.79874,-1.22194 5.45557,-2.71542 4.73855,-2.66366 4.87,-2.67977 6.89738,-0.84501 3.24479,2.93649 2.6099,5.91205 -1.93322,9.06043 -2.2,1.5246 -4,3.23375 -4,3.79811 0,0.56436 0.75103,3.40866 1.66896,6.32067 l 1.66896,5.29456 6.01291,0.29333 c 5.57177,0.27181 6.06517,0.48983 6.72538,2.97166 1.14189,4.29254 -1.30421,6.82167 -6.59773,6.82167 -5.04694,0 -5.85364,0.95318 -6.8968,8.14905 -0.62506,4.31181 -0.47112,4.78966 2.12218,6.58728 1.53788,1.06602 3.59384,2.22624 4.56882,2.57826 2.66506,0.96225 3.14762,3.395 1.24839,6.29359 -1.84959,2.82284 -3.95425,2.8749 -10.35675,0.25617 -3.17665,-1.29931 -3.44849,-1.23325 -5.70203,1.38565 -1.3015,1.5125 -3.10727,2.75 -4.01282,2.75 -1.29384,0 -1.0364,-0.73103 1.20203,-3.41331 3.88284,-4.65275 4.65586,-4.84172 10.587,-2.58806 3.97443,1.51016 5.34747,1.67919 5.94893,0.73233 1.31788,-2.07466 0.95435,-2.61798 -3.154,-4.7139 -2.18161,-1.11298 -4.37139,-2.80962 -4.86619,-3.77033 -0.95818,-1.86042 1.09463,-13.9086 2.63168,-15.44566 0.46983,-0.46982 3.18227,-1.12994 6.02765,-1.46694 4.15814,-0.49247 5.17343,-0.97788 5.17343,-2.47342 0,-1.60548 -0.81492,-1.86071 -5.94099,-1.86071 -6.28653,0 -6.86056,-0.38027 -8.10311,-5.36795 -0.42915,-1.72263 -1.38229,-4.64018 -2.11809,-6.48346 -1.33419,-3.34232 -1.32439,-3.36306 3.61534,-7.65275 4.25032,-3.69099 4.76861,-4.52371 3.65258,-5.86844 -1.16588,-1.4048 -1.67703,-1.3113 -4.93529,0.90275 -1.99909,1.35842 -4.76775,2.46505 -6.15258,2.45918 -2.8499,-0.0121 -12.01786,-7.84795 -12.01786,-10.2717 0,-0.82457 0.86933,-3.44095 1.93186,-5.81417 1.06252,-2.37322 1.71096,-4.67236 1.44098,-5.1092 -1.17321,-1.8983 -3.37452,-0.46712 -5.89393,3.83194 l -2.71114,4.6262 -6.37132,-0.65276 c -3.50422,-0.35902 -7.02053,-0.90189 -7.81401,-1.20638 -1.73114,-0.6643 -3.58244,-5.59559 -3.58244,-9.54248 0,-2.37417 -0.41797,-2.85078 -2.5,-2.85078 -2.34727,0 -2.50094,0.32075 -2.51532,5.25 -0.008,2.8875 -0.34592,5.74175 -0.75,6.34278 -0.40407,0.60102 -3.62975,2.0619 -7.16816,3.24639 l -6.43348,2.15361 -4.30791,-4.62598 c -3.58281,-3.84735 -4.55849,-4.41802 -5.79661,-3.39048 -1.30038,1.07923 -1.17498,1.77081 0.99139,5.46745 1.36405,2.32757 2.48009,4.93373 2.48009,5.79147 0,2.50412 -8.26153,11.72938 -10.5,11.72487 -1.1,-0.002 -3.90923,-0.87068 -6.24273,-1.92992 -4.08763,-1.85549 -4.27832,-1.85939 -5.21637,-0.10661 -0.81847,1.52932 -0.1821,2.31133 3.99272,4.90654 5.43692,3.37978 5.70535,4.21803 3.83538,11.97706 -1.46331,6.07162 -2.35514,6.91464 -8.369,7.91088 -4.03447,0.66834 -5,1.21002 -5,2.80511 0,1.70156 0.78911,2.01825 5.66691,2.27425 6.39026,0.33539 6.90281,0.76091 9.19136,7.63072 2.35128,7.05807 2.10671,8.26697 -2.29243,11.33136 -2.16378,1.50728 -4.07628,3.45801 -4.25,4.33498 -0.17371,0.87696 -0.87834,1.40196 -1.56584,1.16666 z m 7.64446,-0.63398 c 0.68405,-0.82423 2.61531,-1.79985 4.29169,-2.16805 2.35063,-0.51628 3.52764,-0.18976 5.14461,1.42721 l 2.09665,2.09665 -3.13843,-0.90009 c -1.72614,-0.49505 -3.28481,-0.77952 -3.46371,-0.63216 -0.1789,0.14736 -1.64136,0.58453 -3.24991,0.97149 -2.5233,0.60701 -2.75396,0.49791 -1.6809,-0.79505 z m 30.78447,-4.16988 c -5.51419,-2.02293 -11.29362,-6.94583 -14.44217,-12.30179 -2.37247,-4.0358 -2.73446,-5.72037 -2.71945,-12.65549 0.0135,-6.24357 0.48989,-8.88983 2.16977,-12.05291 8.76942,-16.51205 29.64031,-20.00212 43.03,-7.19554 7.19175,6.87855 9.7199,19.16885 5.95724,28.96043 -2.42497,6.3105 -10.91904,14.1086 -17.04909,15.65217 -5.89931,1.48546 -12.20049,1.33418 -16.9463,-0.40687 z m 18.89379,-2.92735 c 8.44561,-3.51745 14.42728,-12.61235 14.42728,-21.93613 0,-13.9748 -10.52147,-24.52074 -24.51481,-24.57184 -9.13757,-0.0334 -16.16438,4.20856 -21.22529,12.81321 -3.3958,5.77359 -3.6381,15.71956 -0.52779,21.66483 6.23946,11.92656 19.79329,17.04743 31.84061,12.02993 z m 109.42728,2.49387 c -1.05714,-0.6664 -1.64762,-3.36238 -2,-9.13148 -0.56304,-9.21795 -0.0792,-8.66601 -10.38127,-11.84279 -7.93147,-2.44577 -8.27219,-2.30304 -13.23151,5.54282 -3.43473,5.43388 -6.21896,6.37572 -10.28622,3.47957 -4.51772,-3.2169 -4.76099,-5.49113 -1.20012,-11.21938 4.88175,-7.85309 4.81627,-8.57696 -1.36632,-15.10254 -3.22618,-3.40517 -6.29461,-5.75 -7.52441,-5.75 -1.14215,0 -4.36606,1.16014 -7.16424,2.57808 -6.4084,3.24738 -8.96847,2.69414 -11.28286,-2.43825 -2.27315,-5.04095 -1.13897,-7.30756 5.28567,-10.56317 6.90213,-3.49758 7.6225,-4.64818 6.27086,-10.01603 -0.61577,-2.44545 -1.11958,-5.52726 -1.11958,-6.84846 0,-3.76064 -2.98593,-5.64044 -10.07554,-6.34309 -7.46502,-0.73985 -9.92446,-2.43316 -9.92446,-6.83294 0,-5.72567 1.85479,-6.97744 11.16659,-7.53614 l 8.33341,-0.5 2.633,-7.5 c 3.06834,-8.74004 2.84238,-9.56009 -3.898,-14.14628 -5.50268,-3.74405 -6.19897,-4.5867 -6.21969,-7.52699 -0.0193,-2.73741 4.59744,-8.32673 6.8778,-8.32673 0.94343,0 3.76399,1.29922 6.26791,2.88716 7.71121,4.89031 8.1226,4.86134 14.83194,-1.04446 3.30387,-2.90819 6.00704,-6.11538 6.00704,-7.12708 0,-1.01171 -1.18877,-4.35231 -2.6417,-7.42355 -3.4142,-7.21703 -2.61065,-10.16946 3.32934,-12.23286 5.05022,-1.75433 5.90978,-1.20615 10.2963,6.56634 1.69571,3.00462 3.63051,5.66983 4.29958,5.92268 2.04837,0.77413 15.93357,-2.28147 16.80977,-3.69918 0.45271,-0.73251 1.09461,-3.8107 1.42645,-6.84044 0.33183,-3.02973 0.69364,-6.18018 0.80402,-7.001 0.3378,-2.51192 4.90471,-4.08927 8.69358,-3.00264 4.47895,1.28455 4.94948,2.29678 4.96734,10.68601 0.01,4.64768 0.45742,7.47189 1.26532,7.98523 0.6875,0.43683 4.37767,1.79365 8.20038,3.01516 7.97242,2.5475 7.77473,2.6258 13.73343,-5.44018 4.59838,-6.2246 7.42638,-6.79484 11.83484,-2.38638 3.33699,3.33699 3.14997,5.21972 -1.20004,12.08097 -1.55024,2.44518 -2.81861,5.20273 -2.81861,6.12789 0,2.56953 9.94315,12.92788 12.39942,12.91719 1.15532,-0.005 4.35058,-1.11596 7.10058,-2.46873 6.00098,-2.95199 7.6841,-3.08117 9.79236,-0.75157 4.58123,5.06221 3.70936,10.02304 -2.23248,12.70244 -2.04064,0.9202 -4.88361,2.65272 -6.3177,3.85004 l -2.60744,2.17696 1.75252,8 c 2.02762,9.25578 3.38332,10.46132 11.79131,10.48526 6.17669,0.0176 8.32143,1.71507 8.32143,6.58617 0,5.70851 -2.67005,7.42857 -11.53139,7.42857 -5.16497,0 -7.64536,0.39276 -7.89414,1.25 -0.19951,0.6875 -1.31039,4.20672 -2.46861,7.8205 -1.15823,3.61377 -2.10586,7.0845 -2.10586,7.71273 0,0.62824 2.66812,2.95414 5.92917,5.16867 7.09304,4.81679 7.97945,6.84185 5.06146,11.56325 -3.005,4.8622 -5.58585,4.94604 -12.94093,0.42042 -2.624,-1.61457 -5.51541,-2.93557 -6.42536,-2.93557 -0.90995,0 -3.73799,2.025 -6.28452,4.5 -2.54653,2.475 -4.98443,4.5 -5.41755,4.5 -2.17276,0 -1.90933,4.50617 0.55828,9.54977 3.52451,7.20384 3.10411,10.37003 -1.7195,12.95023 -4.63516,2.4794 -6.24611,1.67978 -9.85272,-4.89055 -4.32516,-7.87935 -4.6077,-8.02352 -12.8405,-6.55224 -3.92791,0.70196 -7.85935,1.80107 -8.73652,2.44247 -1.05923,0.77454 -1.81071,3.48924 -2.2376,8.08326 -0.35351,3.80438 -0.99577,7.47956 -1.42725,8.16706 -0.91577,1.45917 -8.47812,1.65329 -10.66646,0.2738 z m 9.46511,-3.2738 c 0.27677,-1.2375 0.62284,-5.15872 0.76905,-8.71382 l 0.26584,-6.46381 4,-0.86888 c 2.2,-0.47788 6.6645,-1.51708 9.92112,-2.30933 l 5.92112,-1.44045 2.89129,2.77003 c 1.59022,1.52352 3.73791,4.68394 4.77265,7.02315 1.97731,4.47002 4.12084,5.32587 8.05956,3.21793 2.54614,-1.36266 2.44081,-3.03167 -0.56574,-8.96482 -3.57925,-7.06331 -3.29156,-9.448 1.66764,-13.82317 2.29221,-2.02226 5.07336,-4.68933 6.18034,-5.92683 2.77327,-3.10026 6.09979,-2.86246 13.31877,0.9521 6.07389,3.20949 6.19812,3.23016 8.25,1.37324 3.08462,-2.79154 2.64233,-5.82465 -1.16675,-8.00127 -5.91082,-3.37761 -8.75,-6.68798 -8.75,-10.20214 0,-1.78964 0.37309,-3.48448 0.8291,-3.76631 0.45601,-0.28183 1.42924,-3.01407 2.16274,-6.07164 0.7335,-3.05757 1.99443,-6.10763 2.80207,-6.7779 0.83208,-0.69057 4.7034,-1.26869 8.93348,-1.33407 7.87152,-0.12166 9.22764,-0.87068 9.25729,-5.11299 0.0207,-2.9642 -0.9803,-3.41708 -9.71917,-4.3971 -4.14236,-0.46455 -7.66601,-0.97908 -7.83033,-1.1434 -0.16432,-0.16433 -1.30387,-4.67432 -2.53232,-10.02221 -2.2028,-9.58958 -2.20718,-9.75261 -0.3182,-11.84296 1.05343,-1.16573 4.07398,-3.21418 6.71232,-4.55209 5.42903,-2.75308 6.44978,-4.41688 4.85592,-7.91503 -1.44674,-3.17524 -4.68448,-3.15898 -10.30083,0.0517 -6.02475,3.44418 -8.41546,3.21666 -12.18741,-1.15983 -1.74056,-2.01954 -4.62716,-5.26329 -6.41466,-7.20834 -1.7875,-1.94505 -3.25,-3.96196 -3.25,-4.48202 0,-0.52006 1.575,-3.76192 3.5,-7.20414 4.12383,-7.37411 4.20171,-8.02764 1.25,-10.49006 -3.24311,-2.7055 -4.42998,-2.40455 -7.12411,1.80644 -1.31955,2.0625 -3.80713,5.07833 -5.52794,6.70185 l -3.12876,2.95185 -5.2346,-1.66646 c -2.87903,-0.91655 -6.35959,-1.96061 -7.73459,-2.32013 -4.98253,-1.30278 -6,-3.15961 -6,-10.94965 0,-8.23875 -1.02705,-9.78076 -6.18468,-9.28569 l -3.31532,0.31823 -1,7.9629 c -0.88281,7.02974 -1.29297,8.10206 -3.5,9.15045 -3.49919,1.6622 -11.37877,3.38667 -15.47456,3.38667 -3.1835,0 -3.7344,-0.49344 -7.23565,-6.48084 -4.05336,-6.93157 -6.58829,-8.12195 -10.68778,-5.0189 -1.8425,1.39464 -1.80595,1.64252 1.25,8.477 1.73139,3.87219 3.14799,7.66504 3.14799,8.42856 0,2.14236 -13.4495,13.59418 -15.96558,13.59418 -1.20884,0 -4.88292,-1.57365 -8.16461,-3.497 l -5.96672,-3.497 -2.45155,2.45155 c -3.13132,3.13132 -3.0975,4.99971 0.13114,7.24577 7.25224,5.04512 9.41732,7.50649 9.41732,10.7061 0,4.08751 -3.6908,15.08907 -5.59118,16.66625 -0.87165,0.72341 -4.17781,1.13539 -8.28056,1.03185 -7.84787,-0.19805 -9.44472,0.88666 -8.94649,6.07716 l 0.31823,3.31532 8,0.83283 c 4.4,0.45806 8.36828,1.18633 8.81839,1.6184 0.45012,0.43206 1.23656,3.43229 1.74765,6.66717 0.51109,3.23488 1.20589,7.50445 1.544,9.48793 0.71489,4.19375 -1.25015,6.57478 -8.35418,10.1227 -4.23558,2.11535 -4.77458,3.23346 -3.62558,7.52097 0.806,3.00758 4.0978,2.92822 10.36972,-0.25 2.71343,-1.375 5.71808,-2.5 6.67701,-2.5 0.95892,0 4.57388,2.97313 8.03324,6.60695 7.34517,7.7156 7.73864,9.71682 3.28975,16.732 -3.44462,5.43159 -3.71026,7.4014 -1.25,9.269 2.82862,2.14723 4.96696,1.60617 7.34279,-1.85795 6.28568,-9.16495 8.61145,-10.14638 16.048,-6.77196 2.39756,1.08792 5.79515,1.98792 7.55019,2 1.75504,0.0121 3.54086,0.58446 3.96848,1.27196 0.42762,0.6875 0.64074,4.24526 0.47359,7.90613 -0.38539,8.44092 0.80747,10.84387 5.38308,10.84387 2.75762,0 3.54626,-0.44934 3.94898,-2.25 z m -8.96511,-41.12043 c -2.2,-0.69902 -4.33278,-1.36394 -4.73951,-1.47761 -3.78713,-1.05842 -8.65825,-4.19942 -14.10498,-9.0952 -1.56447,-1.40622 -4.2311,-5.25676 -5.92584,-8.55676 -2.5643,-4.99322 -3.15644,-7.47214 -3.52894,-14.77331 -0.27997,-5.48773 0.0391,-10.54345 0.85198,-13.5 2.77895,-10.10726 10.008,-18.24448 20.77219,-23.38175 5.94136,-2.83555 6.95446,-3.00553 16.00892,-2.68603 8.2873,0.29243 10.48344,0.7552 15.39535,3.24407 6.86533,3.47868 13.50613,10.22458 17.3784,17.65347 2.58303,4.95547 2.8399,6.385 2.86493,15.94355 0.0228,8.68998 -0.345,11.306 -2.13339,15.17567 -2.58402,5.59121 -9.31999,13.14451 -14.82999,16.62943 -8.23255,5.20684 -20.27652,7.28137 -28.00912,4.82447 z m 18.64317,-3.06041 c 18.18004,-5.51761 28.78571,-25.04645 23.34402,-42.98469 -4.68965,-15.45914 -16.16567,-24.57348 -31.94585,-25.37163 -6.58303,-0.33296 -9.12487,0.002 -14.01608,1.84615 -6.86952,2.59027 -15.55953,10.17771 -18.8223,16.43417 -4.91896,9.43226 -5.04943,22.94281 -0.31182,32.29202 3.24215,6.39807 12.23465,14.54671 18.86582,17.09542 6.27064,2.41015 16.22675,2.70969 22.88621,0.68856 z m -237.03728,24.53849 c -1.00305,-0.65028 -1.21535,-2.02168 -0.75685,-4.88897 0.7199,-4.50205 0.1325,-5.26279 -5.64329,-7.30855 -3.7085,-1.31354 -3.86217,-1.27121 -6.80068,1.87298 -3.41636,3.6555 -4.13652,3.84259 -6.33364,1.64546 -1.99474,-1.99474 -1.97245,-2.30316 0.42857,-5.92857 2.60745,-3.93713 2.48842,-5.34654 -0.78469,-9.2911 l -2.73088,-3.2911 -4.09119,1.44346 c -4.6608,1.64442 -6.22601,1.0856 -6.61848,-2.36296 -0.21863,-1.92101 0.54249,-2.84701 3.72524,-4.53226 3.85614,-2.0418 3.98776,-2.27709 3.65983,-6.54201 -0.4127,-5.36729 -0.99741,-6.04992 -5.85899,-6.84015 -3.41362,-0.55487 -3.80084,-0.92171 -3.80084,-3.60084 0,-2.88174 0.18381,-3.00002 5.4129,-3.48304 5.31534,-0.49099 5.44068,-0.57646 6.95379,-4.74214 l 1.54088,-4.24213 -3.33607,-3.44195 c -5.6024,-5.78022 -1.90796,-9.58149 5.42108,-5.57783 l 4.22995,2.31071 3.67491,-2.90333 c 2.71152,-2.14221 3.52804,-3.42764 3.11466,-4.90333 -1.65859,-5.92088 -1.74484,-7.739 -0.40735,-8.5859 2.836,-1.79576 4.86897,-0.88593 6.89525,3.0859 1.9007,3.72568 2.33414,4 6.32032,4 4.89698,0 6.67315,-1.31323 6.69499,-4.95 0.023,-3.82993 1.35891,-5.24928 4.59319,-4.88008 2.75736,0.31477 2.8915,0.56108 2.8915,5.30974 0,4.69631 0.19915,5.07766 3.5,6.70197 4.99516,2.45806 6.53115,2.23222 9.35454,-1.3754 2.27228,-2.90344 2.73339,-3.08719 5.07248,-2.02144 3.08253,1.4045 3.3233,4.2262 0.57298,6.71521 -2.71903,2.46068 -2.47215,5.38282 0.7769,9.1955 2.709,3.17896 2.7438,3.18805 6.7231,1.75664 3.7688,-1.35569 4.10114,-1.31724 5.75,0.66529 2.53573,3.04887 2.25169,3.66482 -2.82798,6.13272 l -4.57798,2.22415 0.64598,4.51285 c 0.68393,4.77794 2.568,7.003 5.95111,7.02816 3.47725,0.0259 4.89441,1.51165 4.17516,4.37736 -0.59512,2.37116 -1.10346,2.60733 -5.61201,2.60733 -4.81989,0 -5.01295,0.11455 -6.94994,4.12367 -2.17875,4.50948 -1.63616,6.9594 1.96857,8.8886 2.37656,1.27189 2.57307,4.24822 0.39958,6.05206 -1.32397,1.0988 -2.26642,0.93288 -5.86385,-1.0323 l -4.28634,-2.34151 -3.63615,2.77343 c -4.05863,3.09567 -4.10222,3.24842 -2.47593,8.67648 1.31947,4.40401 1.29673,4.45579 -2.35958,5.37347 -2.40424,0.60342 -2.89012,0.26127 -4.49987,-3.16872 -1.64193,-3.49855 -2.19981,-3.8735 -6.18856,-4.15932 -5.05071,-0.36191 -6.19978,0.48209 -7.63186,5.6057 -1.07135,3.83296 -3.57123,5.13344 -6.37446,3.31609 z m 4.28712,-2.68944 c 0.33384,-0.86998 0.60699,-2.37524 0.60699,-3.34501 0,-3.74315 4.86126,-5.6504 13.17765,-5.17009 0.94872,0.0548 2.44765,1.84214 3.44983,4.11361 0.97469,2.2092 2.24475,3.84045 2.82234,3.625 0.5776,-0.21544 0.86148,-1.01047 0.63085,-1.76672 -0.23062,-0.75625 -0.61208,-3.02783 -0.84768,-5.04796 -0.39277,-3.36769 -0.0753,-3.92871 3.81936,-6.75 4.97464,-3.60362 7.18742,-3.82019 10.71124,-1.04836 1.71936,1.35245 2.91238,1.69535 3.57905,1.02868 0.66666,-0.66667 0.12926,-1.68492 -1.61222,-3.05477 -3.76548,-2.96193 -4.11136,-5.24632 -1.65786,-10.94963 l 2.17372,-5.05296 h 4.87686 c 6.12339,0 6.83545,-2.43119 0.98601,-3.36656 -4.35879,-0.69699 -4.83677,-1.46455 -5.74983,-9.23325 l -0.63815,-5.42964 4.12924,-1.73527 c 4.38264,-1.84177 6.00647,-5.05459 1.89959,-3.75842 -6.49819,2.05089 -7.22871,1.8653 -11.05945,-2.80962 -2.02981,-2.47711 -3.69055,-5.12817 -3.69055,-5.89126 0,-0.76308 1.11005,-2.89201 2.46677,-4.73095 3.54294,-4.80218 2.03981,-5.73542 -2.55367,-1.58549 -2.15538,1.94726 -4.32504,3.54046 -4.82148,3.54046 -1.30635,0 -9.45167,-4.32015 -10.36982,-5.5 -0.42802,-0.55 -0.51294,-2.9125 -0.18873,-5.25 0.47468,-3.4224 0.28825,-4.25 -0.9574,-4.25 -0.99938,0 -1.94895,1.59677 -2.68288,4.51147 -1.1858,4.70924 -1.17288,4.70067 -8.95841,5.94164 -2.86848,0.45722 -3.97022,0.12633 -5.63506,-1.69239 -1.1382,-1.2434 -2.38436,-3.29799 -2.76925,-4.56577 -0.38488,-1.26777 -1.2241,-2.11934 -1.86493,-1.89237 -1.16181,0.4115 -1.16599,1.37612 -0.0319,7.357 0.54045,2.85021 0.1814,3.46216 -3.66709,6.25 -5.03354,3.64627 -7.05193,3.82619 -10.91156,0.97265 -4.32438,-3.19715 -6.13167,-1.29785 -2.10794,2.21526 3.9463,3.44551 4.33671,6.19862 1.61693,11.40251 -2.00027,3.8272 -2.306,4.00373 -7.07707,4.08639 -5.96948,0.10342 -6.86283,2.31102 -1.48649,3.67335 4.99061,1.2646 5.92112,2.56871 6.22796,8.72859 0.26812,5.38228 0.21805,5.49014 -3.47526,7.48632 -4.17356,2.25574 -5.24162,5.18259 -1.5027,4.11791 6.88413,-1.96031 7.16916,-1.89881 10.51926,2.26995 3.72663,4.63728 4.06322,7.80944 1.21314,11.43274 -2.86086,3.63699 -0.55057,4.62327 2.95732,1.2625 3.44296,-3.29857 5.26423,-3.40643 11.43575,-0.67728 l 4.87548,2.15603 -0.47868,4.98175 c -0.34274,3.56674 -0.12473,4.98175 0.76751,4.98175 0.68542,0 1.51936,-0.7118 1.85321,-1.58179 z m -2.70804,-20.40369 c -5.0499,-1.57207 -9.8368,-6.10447 -12.43031,-11.76944 -3.93748,-8.60059 -2.21143,-18.17123 4.40606,-24.43078 2.99797,-2.83581 11.31231,-6.8143 14.24068,-6.8143 4.55746,0 12.34615,3.31422 15.72184,6.68991 9.21212,9.21212 9.61871,21.7064 1.01391,31.15741 -4.7061,5.16889 -15.2916,7.552 -22.95218,5.1672 z m 18.20484,-4.3229 c 12.07615,-7.99162 11.01295,-26.74671 -1.88981,-33.33688 -11.51097,-5.87929 -24.34579,-0.17544 -28.08676,12.48188 -2.4484,8.284 2.02753,17.89297 10.29047,22.09168 5.92915,3.01282 14.03405,2.50367 19.6861,-1.23668 z"
       id="path1"
       inkscape:export-filename="\\wsl.localhost\Ubuntu\home\michael\Projects\website\static\images\under-construction.svg"
       inkscape:export-xdpi="96"
       inkscape:export-ydpi="96" /></g></svg>
