<?xml version="1.0" encoding="UTF-8" standalone="no"?>
<!-- Created with Inkscape (http://www.inkscape.org/) -->

<svg
   width="126.99999mm"
   height="169.33334mm"
   viewBox="0 0 126.99999 169.33334"
   version="1.1"
   id="svg1"
   xml:space="preserve"
   xmlns:inkscape="http://www.inkscape.org/namespaces/inkscape"
   xmlns:sodipodi="http://sodipodi.sourceforge.net/DTD/sodipodi-0.dtd"
   xmlns="http://www.w3.org/2000/svg"
   xmlns:svg="http://www.w3.org/2000/svg"><sodipodi:namedview
     id="namedview1"
     pagecolor="#505050"
     bordercolor="#eeeeee"
     borderopacity="1"
     inkscape:showpageshadow="0"
     inkscape:pageopacity="0"
     inkscape:pagecheckerboard="0"
     inkscape:deskcolor="#d1d1d1"
     inkscape:document-units="mm" /><defs
     id="defs1" /><g
     inkscape:label="Layer 1"
     inkscape:groupmode="layer"
     id="layer1"
     transform="translate(-11.878107,-50.719313)"><path
       style="fill:#dadada;fill-opacity:1;stroke-width:1"
       d="m 61.622975,219.77442 c -7.308785,-0.75507 -9.487729,-4.7304 -5.96963,-10.89117 0.854058,-1.49559 0.854058,-1.49559 0.603122,-3.25038 -0.466516,-3.26228 -0.225958,-20.0786 0.334285,-23.36854 0.09319,-0.54721 0.06257,-0.60674 -0.239189,-0.46547 -2.231653,1.0446 -3.712871,-1.05224 -4.962547,-7.02508 -0.582258,-2.78289 -0.589196,-2.80023 -1.122277,-2.80403 -0.536395,-0.004 -0.536395,-0.004 -0.435638,-4.2768 0.212573,-9.0149 2.227335,-17.20218 5.835959,-23.71527 0.982293,-1.77291 1.13064,-1.54184 -1.344064,-2.09351 -15.741391,-3.50905 -28.561218,-11.99977 -34.613458,-22.92489 -0.56032,-1.01145 -1.042236,-1.87444 -1.070922,-1.91776 -0.02872,-0.0433 -0.275255,0.1256 -0.54794,0.37537 -2.432268,2.22784 -6.212568,-0.82378 -6.212568,-5.01506 0,-3.52634 1.353677,-5.55835 3.702864,-5.55835 0.9278,0 0.9278,0 1.130872,-0.9195 0.331764,-1.50222 1.135037,-4.27584 1.704521,-5.88556 0.510307,-1.442453 0.520539,-1.53842 0.248479,-2.330189 -0.730563,-2.126107 0.24685,-4.030033 2.088953,-4.069144 0.207454,-0.0041 0.716609,-0.784523 1.43619,-2.200478 0.613142,-1.206516 1.726416,-3.204591 2.473952,-4.440175 1.35681,-2.24264 1.358966,-2.24846 1.245857,-3.37063 -0.200994,-1.994104 0.849627,-3.394666 2.547104,-3.395489 0.591535,-2.87e-4 0.808722,-0.150706 1.484356,-1.028016 1.673918,-2.173581 4.173264,-5.087969 5.747071,-6.701447 1.633869,-1.675044 1.640912,-1.686706 1.642619,-2.719771 0.0028,-1.601054 0.601183,-2.194506 2.058166,-2.040666 1.020881,0.107793 1.14972,0.06794 1.888535,-0.58422 2.240628,-1.977828 6.759601,-5.264074 9.234046,-6.715102 1.179235,-0.691511 1.27804,-0.805481 1.470691,-1.696383 0.325535,-1.505421 1.279226,-1.936853 2.567132,-1.161328 0.500181,0.301186 0.614554,0.295621 1.303236,-0.06341 1.360805,-0.709441 5.123907,-2.191004 7.491864,-2.949609 1.277373,-0.409223 2.343534,-0.815144 2.36925,-0.902048 0.544836,-1.841237 1.376479,-2.251372 2.346118,-1.157014 0.582539,0.657469 0.582539,0.657469 2.25343,0.351508 2.884254,-0.528144 6.012888,-0.776045 9.445855,-0.748456 3.28021,0.02636 3.318861,0.02123 3.603828,-0.478644 0.833961,-1.462916 2.314216,-1.127825 2.859845,0.647397 0.03736,0.121565 1.113057,0.383057 2.390429,0.581091 2.261618,0.350625 7.738932,1.547636 8.025542,1.753902 0.07869,0.05663 0.456586,-0.145121 0.839782,-0.448328 1.232514,-0.975241 2.327193,-0.631501 3.019235,0.948067 0.33952,0.774965 0.47939,0.868301 2.45935,1.641144 1.15465,0.450695 2.95745,1.237312 4.00622,1.748036 1.83204,0.892157 1.93204,0.916336 2.54878,0.616272 1.42719,-0.694381 2.57906,-0.06494 3.16816,1.731262 0.28773,0.877323 0.49263,1.076595 2.69523,2.621293 1.31111,0.919484 3.49008,2.639094 4.84217,3.821356 2.45834,2.149568 2.45834,2.149568 3.20393,1.929194 1.49543,-0.442001 2.39133,0.516442 2.7269,2.91723 0.15122,1.081942 0.29634,1.34673 1.68079,3.06671 1.3156,1.634455 3.5816,4.944125 4.44683,6.494951 0.27871,0.499537 0.27871,0.499537 1.1148,0.05776 3.27412,-1.729997 6.43208,3.125561 5.22358,8.031537 -0.5231,2.123513 -2.67322,3.95301 -4.06235,3.456567 -0.46179,-0.165031 -0.64466,-0.15705 -0.69651,0.03042 -0.0387,0.139797 -0.24545,1.021636 -0.45951,1.959637 -3.86795,16.949283 -16.5231,32.558953 -33.17045,40.914523 -2.558415,1.2841 -2.519238,1.23263 -1.478631,1.94275 1.805521,1.23211 5.032771,5.36924 6.586841,8.44393 0.24058,0.47598 0.45286,0.8922 0.47175,0.92494 0.1173,0.20334 1.87892,-0.93557 2.54315,-1.64417 0.4374,-0.46662 1.22815,-1.10224 1.75723,-1.41248 1.08768,-0.6378 1.91531,-3.77124 1.91897,-7.26532 0.003,-2.5766 0.81708,-3.90872 2.38954,-3.90872 1.88423,0 2.52307,0.99301 2.51909,3.91564 -0.003,1.86029 -0.003,1.86029 0.60921,1.69964 0.87627,-0.23014 1.96468,0.15914 2.81519,1.00687 0.54326,0.54147 0.91278,0.73387 1.40948,0.73387 2.88982,0 3.71638,5.24232 1.04384,6.62036 -0.6613,0.34099 -0.6613,0.34099 -0.67129,1.89054 -0.0121,1.8736 -0.62427,3.462 -1.69799,4.40563 -0.37898,0.33307 -0.90221,0.89108 -1.16273,1.24003 -5.72927,7.67393 -13.39257,10.06507 -18.69915,5.8346 -0.65483,-0.52204 -1.18824,-0.87679 -1.185361,-0.78833 0.0028,0.0885 0.214582,1.71857 0.470455,3.62249 0.255866,1.90391 0.498626,3.85109 0.539446,4.32706 0.0408,0.47599 0.32661,3.20204 0.63509,6.05791 0.55281,5.11795 1.30859,13.54167 1.7082,19.03912 0.11245,1.54693 0.24051,5.59174 0.28458,8.98845 0.0801,6.17585 0.0801,6.17585 1.08127,7.40863 3.28856,4.04948 2.23619,8.68439 -2.21598,9.75978 -6.044172,1.4599 -14.539011,0.96366 -20.004674,-1.16863 -1.700231,-0.66331 -1.700231,-0.66331 -2.181564,-0.12659 -1.681733,1.87525 -10.357462,2.86745 -18.088837,2.06873 z m 11.495587,-0.65335 c 4.08691,-0.38605 5.773398,-1.043 6.382411,-2.48619 0.587764,-1.39283 0.381855,-5.91395 -0.334376,-7.34197 -1.613617,-3.21724 -20.281735,-3.81326 -22.5768,-0.72082 -5.795644,7.80923 0.821818,12.03261 16.528765,10.54898 z m 25.07767,-0.2242 c 4.425638,-0.51057 5.704758,-1.04943 6.716378,-2.82948 1.77142,-3.11699 -1.15703,-7.8955 -5.771584,-9.41782 -4.031609,-1.33 -19.634105,0.97166 -19.178059,2.82912 0.348512,1.41947 0.485279,2.85867 0.454669,4.78438 -0.03441,2.16354 -0.03441,2.16354 1.340124,2.74298 4.350557,1.83403 10.65004,2.55862 16.438472,1.89082 z m -42.21731,-37.76471 c 0.942042,-0.5231 1.316656,-3.54103 0.439543,-3.54103 -0.985207,0 -1.782026,-1.30911 -2.265396,-3.72186 -0.264152,-1.31851 -0.170509,-1.89811 0.256969,-1.59046 0.111094,0.08 0.201991,0.36535 0.201991,0.63421 0,1.68494 1.166265,4.02905 2.004572,4.02905 0.367831,0 1.020439,-5.20381 0.699482,-5.57754 -0.307649,-0.35825 -5.481091,0.085 -5.837602,0.50012 -0.201429,0.23455 1.119096,5.64394 1.751585,7.17517 0.905946,2.19329 1.606615,2.72661 2.748856,2.09234 z m -0.626744,-10.57695 c 2.133642,-0.0856 2.133642,-0.0856 3.008796,-8.15384 0.994821,-9.17153 1.026716,-9.40935 1.287204,-9.59681 0.410435,-0.29538 0.383083,0.3176 -0.282805,6.33763 -0.995172,8.99699 -0.998599,9.03039 -0.934857,9.11309 0.701751,0.91056 6.143075,-5.41742 5.822146,-6.77086 -0.232706,-0.98138 0.05871,-2.65492 0.602476,-3.45988 0.338484,-0.50108 0.347058,-0.67662 0.145348,-2.97737 -0.138459,-1.57928 -0.170446,-4.06618 -0.09036,-7.02411 0.124,-4.57921 0.124,-4.57921 -1.138808,-4.71659 -0.694545,-0.0755 -2.415,-0.2824 -3.823234,-0.45968 -3.018016,-0.37992 -2.647601,-0.55919 -3.967642,1.92023 -3.438486,6.45848 -5.296095,14.11131 -5.584987,23.00861 -0.113327,3.49027 -0.113327,3.49027 1.354871,3.17772 0.807507,-0.17191 2.428343,-0.35107 3.601848,-0.39814 z m 44.136503,-5.13398 c -0.05702,-0.38673 -0.355857,-2.69901 -0.66404,-5.1384 -0.308176,-2.43939 -0.808764,-6.26397 -1.112404,-8.49907 -0.637173,-4.69019 -0.637685,-4.6985 -0.288148,-4.6985 0.319889,0 0.314594,-0.0289 1.12904,6.16608 0.654202,4.97613 0.654202,4.97613 1.586991,5.99581 4.07266,4.452 11.5472,3.20522 16.94705,-2.82682 1.53006,-1.70918 1.52888,-1.64571 0.0357,-1.93383 -3.33856,-0.6442 -6.21351,-4.84252 -6.21351,-9.07363 0,-0.84984 -1.03311,-0.35025 -2.28127,1.10317 -1.00655,1.17207 -4.03592,2.5128 -4.03592,1.78621 0,-0.19336 0.12541,-0.35158 0.27869,-0.35158 1.48464,0 -4.24568,-7.88186 -6.998919,-9.62678 -0.804262,-0.50971 -4.204126,0.20663 -5.130219,1.08093 -0.02872,0.0271 0.158803,1.37936 0.416657,3.00504 0.736904,4.64601 1.059405,8.15472 1.125753,12.24778 0.08625,5.32133 -0.06053,4.92994 3.671607,9.79 1.4206,1.84993 1.68719,2.01924 1.532965,0.97359 z m -29.864104,-1.33289 c 3.217887,-1.95755 2.075624,-7.26716 -1.563392,-7.26716 -3.264494,0 -4.437978,5.08177 -1.630457,7.06069 0.843251,0.59438 2.391644,0.69448 3.193849,0.20647 z m 23.02614,-0.30219 c 1.258567,-1.04355 1.720195,-3.56003 0.979772,-5.34105 -1.492734,-3.59066 -5.946118,-2.14901 -5.946118,1.92488 0,3.17369 2.874297,5.15081 4.966346,3.41617 z M 80.902684,158.5396 c 1.226277,-0.12335 3.023887,-0.41938 3.994691,-0.65783 0.970805,-0.23845 2.075224,-0.48957 2.45427,-0.55803 1.644409,-0.297 1.698552,-5.59212 0.153101,-14.97371 -0.105581,-0.64095 -0.19197,-1.18799 -0.19197,-1.21562 0,-0.0276 -0.480757,0.0813 -1.068352,0.2421 -3.432701,0.93936 -10.90835,2.03074 -13.90995,2.03074 -1.604754,0 -1.449399,-0.43279 -1.740054,4.84744 -0.506276,9.19744 -0.383708,9.64065 2.783379,10.06449 3.584644,0.47973 4.639907,0.51064 7.524885,0.22042 z m 39.083796,-5.52786 c 2.41295,-2.40504 1.94079,-6.90805 -0.62326,-5.94416 -0.10219,0.0384 -0.49934,0.0588 -0.88255,0.0453 -0.69231,-0.0244 -0.69675,-0.0191 -0.69675,0.83932 0,1.31695 -0.47769,1.13866 -0.61692,-0.23024 -0.0773,-0.75985 -0.23614,-1.21183 -0.51994,-1.47944 -0.72805,-0.68648 -0.237,-0.92131 0.70585,-0.33754 2.08718,1.29226 3.60373,-0.69255 2.18459,-2.85911 -1.63328,-2.49348 -4.90439,-2.58187 -5.74136,-0.15515 -0.45635,1.32313 -0.43589,1.29346 -0.68885,0.99891 -0.6401,-0.74536 0.96633,-3.18716 2.25461,-3.42705 0.8277,-0.15411 0.9301,-0.52645 0.93358,-3.39444 0.003,-2.49329 -0.38384,-3.18048 -1.79047,-3.18048 -1.26417,0 -1.92348,1.26055 -1.92348,3.67755 0,1.22636 -0.24844,2.96536 -0.77976,5.4581 -1.38675,6.50618 4.48683,13.67416 8.18471,9.9884 z m 2.75781,-6.56625 c 1.63699,-1.16227 1.30168,-4.70619 -0.48465,-5.1222 -0.60258,-0.14034 -0.62597,-0.12269 -0.49482,0.37336 0.53584,2.02672 0.26799,3.82727 -0.66479,4.46889 -0.46653,0.3209 -0.49403,0.38976 -0.20817,0.52135 0.59318,0.27305 1.24806,0.18771 1.85243,-0.2414 z m -1.24438,-2.67994 c 0,-2.64703 -2.43179,-4.89276 -4.36929,-4.03498 -0.66339,0.29369 -0.50858,0.66001 0.41281,0.97681 1.82123,0.62617 3.129,2.3392 3.10623,4.0688 -0.0142,1.07526 -0.0142,1.07526 0.41805,0.49016 0.30518,-0.41314 0.4322,-0.85422 0.4322,-1.50079 z M 78.02279,142.2274 c 27.72361,-3.82443 49.46984,-22.95255 55.0876,-48.455426 0.58147,-2.639648 0.84813,-3.151908 1.02297,-1.965074 0.23783,1.614422 2.73937,0.579587 3.63004,-1.501662 2.20028,-5.141481 -2.03395,-10.426697 -5.47223,-6.830495 -0.7604,0.795334 -1.28028,0.555581 -0.60642,-0.279666 0.40685,-0.50429 0.40685,-0.50429 -0.54232,-2.112313 -2.01361,-3.411318 -4.7939,-6.92663 -4.94526,-6.25264 -0.1544,0.687518 -0.51031,0.373015 -0.57427,-0.507471 -0.10777,-1.483254 -5.15561,-6.404056 -10.35895,-10.098253 -2.1215,-1.506183 -2.12502,-1.507265 -2.12502,-0.651652 0,0.432707 -0.0929,0.649061 -0.2787,0.649061 -0.18407,0 -0.2787,-0.214388 -0.2787,-0.631367 0,-0.347251 -0.0525,-0.790741 -0.11672,-0.985534 -0.2164,-0.656672 -5.72831,-3.616856 -9.53327,-5.119862 -1.88595,-0.744973 -1.90815,-0.746577 -1.83482,-0.132466 0.0913,0.764915 -0.45258,0.590463 -0.62886,-0.201695 -0.13314,-0.59831 -0.28071,-0.731075 -1.126606,-1.013593 -5.712921,-1.908034 -13.022808,-3.251124 -12.591916,-2.313589 0.137624,0.299431 0.131423,0.463778 -0.02163,0.573937 -0.226527,0.163027 -0.715514,-0.458508 -0.715514,-0.909468 0,-0.968029 -13.780465,-0.748409 -16.768278,0.267237 -0.253886,0.0863 -0.284384,0.198881 -0.139352,0.514436 0.236668,0.514938 0.23909,1.081464 0.0049,1.081464 -0.09956,0 -0.310732,-0.292078 -0.469269,-0.649061 -0.788771,-1.776155 -16.390832,4.096255 -16.223559,6.106334 0.06896,0.828488 -0.458223,1.038313 -0.557785,0.22201 -0.07713,-0.632458 -0.01791,-0.649019 -1.872679,0.523336 -5.661952,3.57873 -12.233629,9.13873 -12.012762,10.163458 0.172231,0.799054 -0.08109,1.086202 -0.452471,0.512893 -0.388251,-0.599364 -4.878644,4.303991 -8.318458,9.083468 -2.529921,3.515227 -2.53978,3.533114 -2.270304,4.119439 0.302684,0.658576 -0.0965,1.151424 -0.463693,0.572487 -0.773828,-1.220073 -7.113037,11.865251 -6.431855,13.276561 0.561634,1.163616 0.217784,1.657046 -0.406847,0.58384 -0.342185,-0.587913 -0.673099,0.157086 -1.705806,3.840286 -0.93584,3.33772 -0.929604,3.2593 -0.283871,3.57075 1.218441,0.58769 0.671463,1.03168 -0.633255,0.51402 -2.778526,-1.10243 -4.822704,1.24333 -4.515975,5.18223 0.264315,3.39422 3.35853,5.54065 5.38747,3.73725 1.076512,-0.95685 0.971675,-0.96689 1.45303,0.13922 7.405643,17.01781 34.467898,28.7192 58.691707,25.37757 z m -6.988623,-26.33631 c 0.651231,-3.7916 6.698157,-6.99757 13.398708,-7.10376 0.743203,-0.0118 0.743203,-0.0118 -0.177293,-0.92372 -2.016868,-1.99815 -1.893991,-1.84137 -1.561258,-1.99212 0.206029,-0.0933 0.784684,0.30588 1.78025,1.22818 0.81125,0.75156 1.629157,1.46985 1.817574,1.5962 0.611506,0.4101 0.129056,0.74369 -1.080586,0.74717 -1.416492,0.004 -1.279542,-0.11482 -2.787058,2.41971 -1.321761,2.22223 -1.521195,2.47164 -1.702793,2.1295 -0.06257,-0.11788 0.391517,-1.08932 1.009062,-2.15877 1.356297,-2.3488 1.349422,-2.25218 0.147357,-2.07091 -5.728032,0.8638 -9.44549,3.04039 -10.199782,5.97202 -0.273338,1.06233 -0.822682,1.1958 -0.644181,0.1565 z m -54.449315,-2.71926 c -0.219645,-0.52343 -0.625979,-0.99324 -1.145078,-1.32396 -0.590517,-0.37621 -0.749643,-0.57666 -0.597989,-0.75324 0.543734,-0.63315 2.424509,1.26357 2.424509,2.44507 0,0.68991 -0.307158,0.52409 -0.681442,-0.36787 z m 28.27269,-1.55881 c -9.776656,-1.81839 -13.486886,-15.317571 -6.347453,-23.094421 6.625293,-7.216811 17.573459,-3.102656 19.364805,7.277006 1.526609,8.845695 -5.379977,17.237905 -13.017352,15.817415 z m 4.432374,-1.00178 c 3.37872,-1.01503 6.316899,-4.1146 7.527215,-7.94068 0.52167,-1.64913 0.517,-2.06547 -0.02198,-1.95789 -9.47124,1.8905 -19.090911,4.57348 -19.090911,5.32456 0,2.76016 7.615436,5.76672 11.585655,4.57401 z m -2.54971,-8.39806 c 2.768471,-0.71662 6.239983,-1.49053 9.29788,-2.0728 1.57611,-0.300122 1.709724,-0.631034 1.370805,-3.395 -1.913717,-15.606878 -21.953545,-14.190048 -21.953545,1.552129 0,5.987521 1.031106,7.187721 5.003137,5.823621 1.833479,-0.62966 4.660256,-1.48825 6.281723,-1.90795 z m -1.775502,-2.20407 c -0.801208,-0.785032 -0.792276,-1.781499 0.0231,-2.580431 0.764481,-0.749051 1.8735,-0.652798 2.517084,0.218461 1.311424,1.775332 -0.971984,3.89853 -2.540195,2.36197 z m 32.600587,4.46768 c -0.07031,-0.13248 0.298141,-1.16921 0.818778,-2.30385 1.192767,-2.59942 0.746152,-4.009332 -2.389439,-7.543265 -0.41736,-0.470374 -0.758835,-0.981511 -0.758835,-1.135855 0,-1.376524 4.343021,4.530646 4.570721,6.216888 0.142146,1.052612 -1.903401,5.402562 -2.241225,4.766082 z m 22.196061,-5.329226 c -9.013896,-2.746883 -11.888607,-15.60973 -5.133176,-22.968299 7.082394,-7.714721 18.737464,-2.441583 19.557024,8.848246 0.64619,8.901456 -6.99673,16.383389 -14.423848,14.120053 z M 105.2246,98.411 c 3.10646,-0.925154 5.93918,-3.567395 7.22233,-6.736701 0.95648,-2.362458 0.98239,-2.610645 0.25798,-2.47166 -0.32333,0.06203 -1.92564,0.311709 -3.56067,0.554834 -7.43489,1.105544 -15.514277,3.075928 -15.514277,3.783587 0,0.476155 2.47832,3.003408 3.66356,3.735892 2.440266,1.508103 5.301397,1.917206 7.931077,1.134048 z M 94.238674,92.36445 c 2.589625,-1.037483 9.251726,-2.493599 15.927466,-3.481223 3.62302,-0.535999 3.38843,-0.346693 3.39348,-2.738578 0.0242,-11.463348 -11.81027,-17.233157 -18.801559,-9.16661 -3.296228,3.80318 -4.16431,9.428916 -2.229765,14.450242 0.286526,0.74372 0.55492,1.352214 0.59643,1.352214 0.0415,0 0.542778,-0.187224 1.113948,-0.416045 z m 6.837526,-4.254795 c -1.454951,-1.425592 0.12636,-4.043856 1.82468,-3.021202 1.09055,0.656682 1.26741,1.944619 0.40495,2.948899 -0.69237,0.806239 -1.45532,0.83098 -2.22963,0.0723 z m 32.87229,0.277943 c 0,-1.26378 1.5873,-3.648183 1.96051,-2.945022 0.0688,0.129598 -0.12513,0.543637 -0.43093,0.920088 -0.6977,0.858901 -0.97218,1.475728 -0.97218,2.184707 0,0.349193 -0.10338,0.555107 -0.2787,0.555107 -0.1915,0 -0.2787,-0.223666 -0.2787,-0.71488 z M 50.301767,81.528637 c -1.502025,-0.08756 -5.389886,-0.282661 -8.639682,-0.433564 -5.590844,-0.25961 -6.507148,-0.385309 -6.085231,-0.834777 0.334172,-0.355996 18.384877,0.678306 18.384877,1.053451 0,0.402224 -0.222334,0.415278 -3.659964,0.21489 z m 40.626459,-7.801663 c -0.200762,-0.37826 14.458504,-8.746105 14.942814,-8.529697 0.46923,0.20967 0.0829,0.453124 -7.395551,4.660635 -8.050422,4.529303 -7.379408,4.185314 -7.547263,3.869062 z m -70.921383,22.31388 c 0.736497,-1.799087 0.735957,-1.777 0.03659,-1.493098 -0.822844,0.334012 -1.167522,1.055318 -1.013052,2.119982 0.169071,1.16526 0.269125,1.10102 0.976486,-0.626884 z m 8.482283,-14.917511 c 0.162244,-0.246454 0.08367,-0.270704 -0.450098,-0.138906 -1.014055,0.250394 -1.482748,0.88559 -1.482748,2.009509 0,1.004901 0.109823,0.898612 1.932846,-1.870603 z m 97.010314,-9.51988 c -0.20484,-1.086023 -0.77919,-1.75646 -1.50472,-1.75646 -0.85323,0 -0.81411,0.12987 0.43154,1.432584 1.18671,1.241084 1.24978,1.260115 1.07318,0.323876 z M 39.004856,69.197942 c 0.836095,-0.852502 0.836095,-0.852502 0.149885,-0.858957 -0.725893,-0.0069 -1.264683,0.563963 -1.264683,1.339804 0,0.552677 0.175334,0.477051 1.114798,-0.480847 z m 72.922214,-8.663525 c -0.35076,-0.789824 -1.00157,-1.178324 -1.65433,-0.987549 -0.69348,0.202671 -0.59755,0.404688 0.49724,1.047194 1.32565,0.77799 1.52452,0.767739 1.15709,-0.05964 z M 54.127396,58.125979 c -0.189843,-0.357686 -1.171328,-0.185306 -1.366831,0.240057 -0.35597,0.774516 -0.196682,0.876473 0.634603,0.406193 0.45481,-0.257303 0.784319,-0.548115 0.732228,-0.64625 z m 45.819753,-2.706638 c 0,-0.801856 -1.11866,-1.311717 -1.847152,-0.841889 -0.448461,0.289229 -0.443145,0.296312 0.464501,0.618868 1.063991,0.378116 1.382651,0.429517 1.382651,0.223021 z M 67.792748,53.265524 c 0.04501,-0.04843 -0.06109,-0.254464 -0.23574,-0.457854 -0.365794,-0.425949 -0.915139,-0.169134 -1.024547,0.478968 -0.05864,0.347346 0.93327,0.330729 1.260287,-0.02111 z m 17.496446,-1.33189 c -0.285002,-0.620103 -0.763364,-0.760166 -1.161882,-0.340199 -0.515258,0.54298 -0.426229,0.697177 0.444915,0.770571 0.970032,0.08172 0.956156,0.09006 0.716967,-0.430372 z"
       id="path2"
       inkscape:export-filename="under-construction.svg"
       inkscape:export-xdpi="96"
       inkscape:export-ydpi="96" /></g></svg>
